# xmcd
#
# Track frame offsets: 
#        150
#        20639
#        32601
#        49395
#        68227
#        79599
#        98718
#        113301
#        127579
#        143568
#        162312
#
# Disc length: 2412 seconds
#
# Revision: 0
# Processed by: cddbd v1.5.2PL0 Copyright (c) Steve Scherf et al.
# Submitted via: ExactAudioCopyFreeDBPlugin 1.0
#
DISCID=7f096a0b
DTITLE=Blue Moon Marquee - Bare Knuckles and Brawn
DYEAR=2019
DGENRE=blues
TTITLE0=Big Black Mamba
TTITLE1=Smoke Rings For My Rider
TTITLE2=Fever Flickering Flame
TTITLE3=Hard Times Hit Parade
TTITLE4=As I Lay Dying
TTITLE5=High Noon
TTITLE6=The Red Devil Himself
TTITLE7=Big Smoke
TTITLE8=52nd Street Strut
TTITLE9=Wayward
TTITLE10=Lost and Wild
EXTD=
EXTT0=
EXTT1=
EXTT2=
EXTT3=
EXTT4=
EXTT5=
EXTT6=
EXTT7=
EXTT8=
EXTT9=
EXTT10=
PLAYORDER=
